<svg xmlns="http://www.w3.org/2000/svg" xmlns:xlink="http://www.w3.org/1999/xlink" width="500" zoomAndPan="magnify" viewBox="0 0 375 74.999997" height="100" preserveAspectRatio="xMidYMid meet" version="1.0"><defs><g/><clipPath id="d0998080ef"><path d="M 49.953125 37 L 59 37 L 59 43 L 49.953125 43 Z M 49.953125 37 " clip-rule="nonzero"/></clipPath><clipPath id="3ece94606f"><path d="M 80 63 L 85 63 L 85 72 L 80 72 Z M 80 63 " clip-rule="nonzero"/></clipPath><clipPath id="1bb1a6feda"><path d="M 105 36 L 114.453125 36 L 114.453125 42 L 105 42 Z M 105 36 " clip-rule="nonzero"/></clipPath><clipPath id="6046824b32"><path d="M 79 7.5 L 85 7.5 L 85 17 L 79 17 Z M 79 7.5 " clip-rule="nonzero"/></clipPath></defs><path fill="#ff0000" d="M 71.972656 18.359375 C 71.886719 18.398438 71.804688 18.445312 71.71875 18.484375 C 71.535156 18.578125 71.351562 18.667969 71.171875 18.78125 C 70.992188 18.890625 70.878906 18.9375 70.726562 19.019531 C 70.578125 19.101562 70.367188 19.222656 70.191406 19.3125 L 69.757812 19.574219 C 69.582031 19.683594 69.410156 19.800781 69.234375 19.910156 L 68.820312 20.1875 C 68.644531 20.308594 68.476562 20.433594 68.304688 20.554688 C 68.214844 20.621094 68.117188 20.683594 68.03125 20.75 C 66.675781 18.050781 65.800781 15.203125 65.402344 12.210938 C 67.644531 15.28125 69.097656 16.796875 71.972656 18.359375 Z M 71.972656 18.359375 " fill-opacity="1" fill-rule="nonzero"/><path fill="#ff0000" d="M 62.644531 26.347656 C 62.589844 26.425781 62.539062 26.507812 62.488281 26.585938 C 62.371094 26.757812 62.261719 26.929688 62.15625 27.101562 C 62.046875 27.269531 61.972656 27.394531 61.882812 27.535156 C 61.796875 27.675781 61.675781 27.886719 61.589844 28.0625 C 61.5 28.238281 61.421875 28.359375 61.339844 28.511719 C 61.257812 28.664062 61.148438 28.871094 61.042969 29.054688 C 60.9375 29.234375 60.890625 29.347656 60.816406 29.507812 C 60.742188 29.671875 60.648438 29.882812 60.554688 30.066406 C 60.507812 30.167969 60.457031 30.273438 60.410156 30.378906 C 57.898438 28.71875 55.71875 26.695312 53.882812 24.3125 C 57.367188 25.84375 59.378906 26.429688 62.644531 26.347656 Z M 62.644531 26.347656 " fill-opacity="1" fill-rule="nonzero"/><g clip-path="url(#d0998080ef)"><path fill="#ff0000" d="M 58.648438 42.546875 C 55.640625 42.363281 52.738281 41.695312 49.953125 40.539062 C 53.734375 40.128906 55.773438 39.625 58.5625 37.921875 C 58.5625 38.078125 58.542969 38.234375 58.535156 38.394531 C 58.535156 38.503906 58.519531 38.613281 58.515625 38.722656 C 58.5 39.066406 58.492188 39.410156 58.492188 39.757812 C 58.492188 40.101562 58.492188 40.378906 58.511719 40.691406 L 58.511719 40.921875 C 58.523438 41.230469 58.546875 41.542969 58.574219 41.851562 C 58.574219 41.863281 58.574219 41.878906 58.574219 41.890625 C 58.605469 42.105469 58.625 42.316406 58.648438 42.546875 Z M 58.648438 42.546875 " fill-opacity="1" fill-rule="nonzero"/></g><path fill="#ff0000" d="M 63.207031 53.9375 C 60.503906 55.289062 57.660156 56.164062 54.664062 56.5625 C 57.734375 54.328125 59.246094 52.855469 60.808594 49.996094 C 60.851562 50.074219 60.894531 50.15625 60.933594 50.234375 C 61.027344 50.425781 61.121094 50.613281 61.226562 50.800781 C 61.332031 50.984375 61.378906 51.09375 61.460938 51.230469 C 61.558594 51.414062 61.664062 51.597656 61.773438 51.78125 L 62.023438 52.199219 C 62.136719 52.382812 62.25 52.558594 62.367188 52.738281 C 62.480469 52.917969 62.546875 53.007812 62.636719 53.140625 C 62.757812 53.320312 62.886719 53.492188 63.007812 53.667969 C 63.070312 53.753906 63.128906 53.847656 63.207031 53.9375 Z M 63.207031 53.9375 " fill-opacity="1" fill-rule="nonzero"/><path fill="#ff0000" d="M 72.832031 61.546875 C 71.171875 64.058594 69.148438 66.234375 66.765625 68.074219 C 68.296875 64.597656 68.878906 62.574219 68.800781 59.335938 L 69.039062 59.492188 C 69.210938 59.605469 69.386719 59.71875 69.558594 59.828125 C 69.734375 59.9375 69.851562 60.007812 69.988281 60.09375 L 70.523438 60.40625 C 70.667969 60.488281 70.816406 60.574219 70.960938 60.648438 C 71.105469 60.726562 71.328125 60.847656 71.515625 60.945312 L 71.957031 61.160156 L 72.546875 61.429688 Z M 72.832031 61.546875 " fill-opacity="1" fill-rule="nonzero"/><g clip-path="url(#3ece94606f)"><path fill="#ff0000" d="M 84.984375 63.316406 C 84.804688 66.324219 84.140625 69.226562 82.992188 72.015625 C 82.582031 68.230469 82.078125 66.191406 80.375 63.40625 L 80.714844 63.421875 C 80.914062 63.421875 81.113281 63.445312 81.304688 63.453125 C 81.496094 63.457031 81.65625 63.453125 81.835938 63.453125 L 82.464844 63.453125 C 82.617188 63.453125 82.757812 63.453125 82.921875 63.453125 C 83.140625 63.453125 83.355469 63.4375 83.570312 63.421875 L 84.039062 63.394531 C 84.253906 63.375 84.46875 63.359375 84.683594 63.335938 C 84.789062 63.332031 84.886719 63.328125 84.984375 63.316406 Z M 84.984375 63.316406 " fill-opacity="1" fill-rule="nonzero"/></g><path fill="#ff0000" d="M 99.015625 67.289062 C 96.773438 64.21875 95.316406 62.707031 92.445312 61.144531 L 92.699219 61.015625 L 93.246094 60.738281 C 93.394531 60.65625 93.539062 60.578125 93.691406 60.496094 C 93.84375 60.414062 94.046875 60.296875 94.226562 60.203125 C 94.402344 60.105469 94.519531 60.03125 94.65625 59.941406 C 94.796875 59.855469 95.007812 59.722656 95.183594 59.605469 L 95.601562 59.335938 C 95.777344 59.214844 95.949219 59.089844 96.117188 58.96875 C 96.210938 58.902344 96.304688 58.839844 96.394531 58.773438 C 97.742188 61.464844 98.613281 64.304688 99.015625 67.289062 Z M 99.015625 67.289062 " fill-opacity="1" fill-rule="nonzero"/><path fill="#ff0000" d="M 110.527344 55.210938 C 107.265625 53.761719 105.292969 53.152344 102.378906 53.152344 C 102.1875 53.152344 101.988281 53.152344 101.789062 53.152344 C 101.839844 53.074219 101.890625 52.992188 101.945312 52.914062 C 102.058594 52.742188 102.171875 52.570312 102.28125 52.398438 C 102.390625 52.222656 102.460938 52.101562 102.546875 51.964844 C 102.636719 51.824219 102.757812 51.609375 102.855469 51.429688 C 102.957031 51.25 103.023438 51.136719 103.101562 50.992188 C 103.179688 50.847656 103.296875 50.625 103.394531 50.4375 L 103.617188 49.996094 C 103.707031 49.804688 103.796875 49.609375 103.882812 49.40625 C 103.925781 49.308594 103.976562 49.210938 104.019531 49.113281 C 106.53125 50.78125 108.699219 52.816406 110.527344 55.210938 Z M 110.527344 55.210938 " fill-opacity="1" fill-rule="nonzero"/><g clip-path="url(#1bb1a6feda)"><path fill="#ff0000" d="M 105.910156 40.78125 C 105.925781 40.4375 105.933594 40.089844 105.933594 39.742188 C 105.933594 39.398438 105.933594 39.121094 105.914062 38.808594 L 105.914062 38.582031 C 105.914062 38.285156 105.878906 37.960938 105.851562 37.652344 C 105.851562 37.652344 105.851562 37.625 105.851562 37.609375 C 105.832031 37.398438 105.8125 37.183594 105.789062 36.96875 C 108.789062 37.15625 111.675781 37.824219 114.453125 38.976562 C 110.671875 39.386719 108.632812 39.886719 105.84375 41.59375 C 105.84375 41.433594 105.863281 41.277344 105.871094 41.121094 C 105.890625 41.011719 105.910156 40.902344 105.910156 40.78125 Z M 105.910156 40.78125 " fill-opacity="1" fill-rule="nonzero"/></g><path fill="#ff0000" d="M 109.742188 22.953125 C 106.683594 25.195312 105.167969 26.644531 103.609375 29.519531 C 103.566406 29.433594 103.519531 29.347656 103.476562 29.261719 C 103.386719 29.082031 103.296875 28.902344 103.203125 28.722656 C 103.121094 28.574219 103.042969 28.429688 102.960938 28.273438 C 102.878906 28.117188 102.761719 27.917969 102.664062 27.742188 L 102.402344 27.304688 C 102.292969 27.132812 102.183594 26.957031 102.066406 26.785156 C 101.953125 26.613281 101.886719 26.492188 101.792969 26.371094 C 101.695312 26.25 101.550781 26.023438 101.421875 25.851562 C 101.359375 25.761719 101.296875 25.667969 101.230469 25.578125 C 103.917969 24.226562 106.757812 23.351562 109.742188 22.953125 Z M 109.742188 22.953125 " fill-opacity="1" fill-rule="nonzero"/><path fill="#ff0000" d="M 95.621094 20.191406 L 95.378906 20.035156 C 95.207031 19.921875 95.039062 19.808594 94.863281 19.699219 C 94.691406 19.589844 94.570312 19.519531 94.433594 19.433594 C 94.296875 19.347656 94.082031 19.222656 93.902344 19.121094 L 93.460938 18.878906 C 93.28125 18.78125 93.09375 18.683594 92.90625 18.582031 C 92.71875 18.484375 92.609375 18.433594 92.464844 18.363281 C 92.316406 18.292969 92.082031 18.183594 91.875 18.101562 L 91.582031 17.960938 C 93.246094 15.449219 95.273438 13.273438 97.664062 11.4375 C 96.117188 14.914062 95.539062 16.925781 95.621094 20.191406 Z M 95.621094 20.191406 " fill-opacity="1" fill-rule="nonzero"/><g clip-path="url(#6046824b32)"><path fill="#ff0000" d="M 84.042969 16.109375 C 83.933594 16.109375 83.824219 16.109375 83.714844 16.089844 L 83.207031 16.066406 C 83 16.066406 82.792969 16.066406 82.585938 16.046875 L 81.46875 16.046875 L 80.960938 16.066406 L 80.371094 16.105469 L 79.816406 16.15625 C 79.691406 16.15625 79.5625 16.175781 79.441406 16.191406 C 79.617188 13.183594 80.277344 10.285156 81.425781 7.5 C 81.835938 11.28125 82.351562 13.320312 84.042969 16.109375 Z M 84.042969 16.109375 " fill-opacity="1" fill-rule="nonzero"/></g><path fill="#ff0000" d="M 103.570312 39.757812 C 103.570312 40.113281 103.570312 40.46875 103.542969 40.820312 C 103.496094 41.8125 103.378906 42.792969 103.191406 43.765625 C 102.984375 44.871094 102.691406 45.949219 102.308594 47.007812 C 102.199219 47.300781 102.082031 47.621094 101.960938 47.921875 C 101.078125 50.058594 99.878906 51.996094 98.367188 53.738281 C 97.632812 54.589844 96.839844 55.375 95.980469 56.097656 C 95.730469 56.308594 95.472656 56.515625 95.214844 56.714844 C 93.390625 58.121094 91.394531 59.199219 89.222656 59.953125 C 88.164062 60.324219 87.085938 60.605469 85.980469 60.800781 C 84.035156 61.144531 82.082031 61.21875 80.117188 61.03125 C 79.46875 60.96875 78.824219 60.875 78.1875 60.753906 C 77.085938 60.546875 76.003906 60.253906 74.949219 59.871094 C 74.652344 59.757812 74.335938 59.640625 74.035156 59.519531 C 70.832031 58.1875 68.113281 56.199219 65.878906 53.546875 C 65.667969 53.285156 65.464844 53.019531 65.269531 52.761719 C 63.859375 50.941406 62.78125 48.941406 62.027344 46.769531 C 61.660156 45.710938 61.378906 44.628906 61.179688 43.527344 C 60.960938 42.28125 60.851562 41.023438 60.851562 39.757812 C 60.851562 39.402344 60.851562 39.046875 60.875 38.691406 C 60.925781 37.703125 61.042969 36.722656 61.226562 35.746094 C 61.6875 33.34375 62.539062 31.082031 63.773438 28.96875 C 65.011719 26.855469 66.566406 25.011719 68.4375 23.429688 C 68.6875 23.21875 68.941406 23.011719 69.203125 22.8125 C 71.023438 21.40625 73.023438 20.328125 75.195312 19.574219 C 76.253906 19.207031 77.332031 18.921875 78.4375 18.722656 C 78.753906 18.667969 79.070312 18.621094 79.390625 18.578125 L 79.574219 18.558594 C 79.835938 18.527344 80.097656 18.496094 80.363281 18.472656 L 80.511719 18.472656 C 80.789062 18.453125 81.0625 18.433594 81.339844 18.421875 L 81.464844 18.421875 C 81.761719 18.421875 82.027344 18.421875 82.308594 18.421875 L 82.558594 18.421875 C 82.804688 18.421875 83.054688 18.421875 83.296875 18.445312 L 83.554688 18.460938 C 83.796875 18.476562 84.039062 18.496094 84.277344 18.519531 C 84.410156 18.519531 84.542969 18.546875 84.671875 18.5625 C 84.867188 18.585938 85.0625 18.605469 85.261719 18.632812 C 85.558594 18.675781 85.851562 18.722656 86.144531 18.78125 L 86.230469 18.792969 C 87.332031 19.003906 88.410156 19.296875 89.46875 19.679688 C 89.761719 19.789062 90.082031 19.90625 90.382812 20.03125 C 92.511719 20.90625 94.449219 22.09375 96.191406 23.597656 C 97.039062 24.332031 97.824219 25.128906 98.546875 25.984375 C 100.242188 28 101.519531 30.253906 102.378906 32.742188 C 102.746094 33.800781 103.027344 34.878906 103.226562 35.984375 C 103.449219 37.230469 103.566406 38.488281 103.570312 39.757812 Z M 103.570312 39.757812 " fill-opacity="1" fill-rule="nonzero"/><g fill="#000000" fill-opacity="1"><g transform="translate(114.537632, 37.989263)"><g><path d="M 7.851562 -11.652344 L 4.652344 -11.652344 L 4.652344 -19.605469 C 4.652344 -19.855469 4.5 -20.003906 4.25 -20.003906 L 1.675781 -20.003906 C 1.375 -20.003906 1.25 -19.855469 1.25 -19.605469 L 1.25 -0.398438 C 1.25 -0.148438 1.375 0 1.675781 0 L 4.25 0 C 4.5 0 4.652344 -0.148438 4.652344 -0.398438 L 4.652344 -8.351562 L 7.851562 -8.351562 L 7.851562 -0.398438 C 7.851562 -0.148438 8 0 8.25 0 L 10.828125 0 C 11.128906 0 11.253906 -0.148438 11.253906 -0.398438 L 11.253906 -19.605469 C 11.253906 -19.855469 11.128906 -20.003906 10.828125 -20.003906 L 8.25 -20.003906 C 8 -20.003906 7.851562 -19.855469 7.851562 -19.605469 Z M 7.851562 -11.652344 "/></g></g></g><g fill="#000000" fill-opacity="1"><g transform="translate(127.911408, 37.989263)"><g><path d="M 10.203125 -20.003906 C 9.902344 -20.003906 9.726562 -19.878906 9.628906 -19.605469 L 6.828125 -12.425781 L 4.027344 -19.605469 C 3.925781 -19.878906 3.75 -20.003906 3.449219 -20.003906 L 0.949219 -20.003906 C 0.574219 -20.003906 0.398438 -19.777344 0.550781 -19.429688 L 5.125 -8.300781 L 5.125 -0.5 C 5.125 -0.175781 5.300781 0 5.625 0 L 8.027344 0 C 8.351562 0 8.527344 -0.175781 8.527344 -0.5 L 8.527344 -8.300781 L 13.101562 -19.429688 C 13.253906 -19.777344 13.078125 -20.003906 12.703125 -20.003906 Z M 10.203125 -20.003906 "/></g></g></g><g fill="#000000" fill-opacity="1"><g transform="translate(142.435056, 37.989263)"><g><path d="M 1.25 -0.398438 C 1.25 -0.125 1.375 0 1.648438 0 L 7.652344 0 C 10.003906 0 11.253906 -1.25 11.253906 -3.601562 L 11.253906 -16.378906 C 11.253906 -18.730469 10.003906 -20.003906 7.652344 -20.003906 L 1.648438 -20.003906 C 1.375 -20.003906 1.25 -19.855469 1.25 -19.605469 Z M 4.652344 -3.300781 L 4.652344 -16.703125 L 6.953125 -16.703125 C 7.601562 -16.703125 7.953125 -16.351562 7.953125 -15.679688 L 7.953125 -4.300781 C 7.953125 -3.625 7.601562 -3.300781 6.953125 -3.300781 Z M 4.652344 -3.300781 "/></g></g></g><g fill="#000000" fill-opacity="1"><g transform="translate(155.80883, 37.989263)"><g><path d="M 11.226562 -19.605469 C 11.226562 -19.855469 11.128906 -20.003906 10.828125 -20.003906 L 1.625 -20.003906 C 1.398438 -20.003906 1.25 -19.855469 1.25 -19.605469 L 1.25 -0.398438 C 1.25 -0.148438 1.398438 0 1.625 0 L 10.828125 0 C 11.128906 0 11.226562 -0.148438 11.226562 -0.398438 L 11.226562 -2.902344 C 11.226562 -3.175781 11.128906 -3.300781 10.828125 -3.300781 L 4.574219 -3.300781 L 4.574219 -8.351562 L 9.351562 -8.351562 C 9.601562 -8.351562 9.753906 -8.5 9.753906 -8.777344 L 9.753906 -11.253906 C 9.753906 -11.527344 9.601562 -11.675781 9.351562 -11.675781 L 4.574219 -11.675781 L 4.574219 -16.679688 L 10.828125 -16.679688 C 11.128906 -16.679688 11.226562 -16.851562 11.226562 -17.101562 Z M 11.226562 -19.605469 "/></g></g></g><g fill="#000000" fill-opacity="1"><g transform="translate(169.157611, 37.989263)"><g><path d="M 11.527344 -16.402344 C 11.527344 -18.753906 10.277344 -20.003906 7.925781 -20.003906 L 1.648438 -20.003906 C 1.398438 -20.003906 1.25 -19.855469 1.25 -19.605469 L 1.25 -0.398438 C 1.25 -0.148438 1.398438 0 1.648438 0 L 4.25 0 C 4.5 0 4.652344 -0.148438 4.652344 -0.398438 L 4.652344 -6.703125 L 6.375 -6.703125 L 8.050781 -0.351562 C 8.101562 -0.125 8.226562 0 8.476562 0 L 11.078125 0 C 11.351562 0 11.503906 -0.148438 11.425781 -0.449219 L 9.703125 -7 C 10.902344 -7.527344 11.527344 -8.625 11.527344 -10.300781 Z M 4.652344 -10.003906 L 4.652344 -16.703125 L 7.125 -16.703125 C 7.777344 -16.703125 8.125 -16.351562 8.125 -15.703125 L 8.125 -11.003906 C 8.125 -10.351562 7.777344 -10.003906 7.125 -10.003906 Z M 4.652344 -10.003906 "/></g></g></g><g fill="#000000" fill-opacity="1"><g transform="translate(182.806358, 37.989263)"><g><path d="M 13.300781 0 C 13.601562 0 13.703125 -0.148438 13.652344 -0.425781 L 9.5 -19.652344 C 9.453125 -19.902344 9.300781 -20.003906 9.078125 -20.003906 L 5.601562 -20.003906 C 5.375 -20.003906 5.226562 -19.902344 5.175781 -19.652344 L 1.023438 -0.425781 C 0.949219 -0.148438 1.074219 0 1.351562 0 L 4.027344 0 C 4.25 0 4.375 -0.125 4.425781 -0.351562 L 5.101562 -4 L 9.550781 -4 L 10.253906 -0.351562 C 10.300781 -0.125 10.425781 0 10.652344 0 Z M 8.925781 -6.902344 L 5.726562 -6.902344 L 7.328125 -15.628906 Z M 8.925781 -6.902344 "/></g></g></g><g fill="#000000" fill-opacity="1"><g transform="translate(198.329894, 37.989263)"><g><path d="M 11.277344 -16.402344 C 11.277344 -18.753906 10.003906 -20.003906 7.652344 -20.003906 L 1.648438 -20.003906 C 1.398438 -20.003906 1.25 -19.878906 1.25 -19.605469 L 1.25 -0.398438 C 1.25 -0.148438 1.398438 0 1.648438 0 L 7.652344 0 C 10.003906 0 11.277344 -1.25 11.277344 -3.601562 L 11.277344 -8.203125 C 11.277344 -9.125 10.601562 -9.828125 9.703125 -9.976562 L 9.703125 -10.027344 C 10.601562 -10.175781 11.277344 -10.878906 11.277344 -11.800781 Z M 7.953125 -12.628906 C 7.953125 -12.003906 7.601562 -11.652344 6.953125 -11.652344 L 4.675781 -11.652344 L 4.675781 -16.703125 L 6.953125 -16.703125 C 7.625 -16.703125 7.953125 -16.351562 7.953125 -15.703125 Z M 7.953125 -4.300781 C 7.953125 -3.625 7.601562 -3.300781 6.953125 -3.300781 L 4.675781 -3.300781 L 4.675781 -8.351562 L 6.953125 -8.351562 C 7.625 -8.351562 7.953125 -8 7.953125 -7.351562 Z M 7.953125 -4.300781 "/></g></g></g><g fill="#000000" fill-opacity="1"><g transform="translate(211.72867, 37.989263)"><g><path d="M 13.300781 0 C 13.601562 0 13.703125 -0.148438 13.652344 -0.425781 L 9.5 -19.652344 C 9.453125 -19.902344 9.300781 -20.003906 9.078125 -20.003906 L 5.601562 -20.003906 C 5.375 -20.003906 5.226562 -19.902344 5.175781 -19.652344 L 1.023438 -0.425781 C 0.949219 -0.148438 1.074219 0 1.351562 0 L 4.027344 0 C 4.25 0 4.375 -0.125 4.425781 -0.351562 L 5.101562 -4 L 9.550781 -4 L 10.253906 -0.351562 C 10.300781 -0.125 10.425781 0 10.652344 0 Z M 8.925781 -6.902344 L 5.726562 -6.902344 L 7.328125 -15.628906 Z M 8.925781 -6.902344 "/></g></g></g><g fill="#000000" fill-opacity="1"><g transform="translate(227.252207, 37.989263)"><g><path d="M 1.25 -0.398438 C 1.25 -0.125 1.375 0 1.648438 0 L 7.652344 0 C 10.003906 0 11.253906 -1.25 11.253906 -3.601562 L 11.253906 -16.378906 C 11.253906 -18.730469 10.003906 -20.003906 7.652344 -20.003906 L 1.648438 -20.003906 C 1.375 -20.003906 1.25 -19.855469 1.25 -19.605469 Z M 4.652344 -3.300781 L 4.652344 -16.703125 L 6.953125 -16.703125 C 7.601562 -16.703125 7.953125 -16.351562 7.953125 -15.679688 L 7.953125 -4.300781 C 7.953125 -3.625 7.601562 -3.300781 6.953125 -3.300781 Z M 4.652344 -3.300781 "/></g></g></g><g fill="#000000" fill-opacity="1"><g transform="translate(114.537632, 61.604908)"><g><path d="M 9.625 -14 C 9.625 -16.007812 8.535156 -17.074219 6.53125 -17.074219 L 1.410156 -17.074219 C 1.195312 -17.074219 1.066406 -16.96875 1.066406 -16.730469 L 1.066406 -0.339844 C 1.066406 -0.128906 1.195312 0 1.410156 0 L 6.53125 0 C 8.535156 0 9.625 -1.066406 9.625 -3.074219 L 9.625 -7 C 9.625 -7.789062 9.050781 -8.386719 8.28125 -8.515625 L 8.28125 -8.558594 C 9.050781 -8.6875 9.625 -9.285156 9.625 -10.074219 Z M 6.785156 -10.777344 C 6.785156 -10.242188 6.488281 -9.945312 5.933594 -9.945312 L 3.992188 -9.945312 L 3.992188 -14.257812 L 5.933594 -14.257812 C 6.507812 -14.257812 6.785156 -13.957031 6.785156 -13.402344 Z M 6.785156 -3.671875 C 6.785156 -3.09375 6.488281 -2.816406 5.933594 -2.816406 L 3.992188 -2.816406 L 3.992188 -7.128906 L 5.933594 -7.128906 C 6.507812 -7.128906 6.785156 -6.828125 6.785156 -6.273438 Z M 6.785156 -3.671875 "/></g></g></g><g fill="#000000" fill-opacity="1"><g transform="translate(125.976816, 61.604908)"><g><path d="M 1.066406 -3.074219 C 1.066406 -1.066406 2.132812 0 4.140625 0 L 6.53125 0 C 8.535156 0 9.605469 -1.066406 9.605469 -3.074219 L 9.605469 -14 C 9.605469 -16.007812 8.535156 -17.074219 6.53125 -17.074219 L 4.140625 -17.074219 C 2.132812 -17.074219 1.066406 -16.007812 1.066406 -14 Z M 4.757812 -2.753906 C 4.203125 -2.753906 3.90625 -3.03125 3.90625 -3.605469 L 3.90625 -13.464844 C 3.90625 -14.023438 4.203125 -14.320312 4.757812 -14.320312 L 5.996094 -14.320312 C 6.550781 -14.320312 6.851562 -14.023438 6.851562 -13.464844 L 6.851562 -3.605469 C 6.851562 -3.03125 6.550781 -2.753906 5.996094 -2.753906 Z M 4.757812 -2.753906 "/></g></g></g><g fill="#000000" fill-opacity="1"><g transform="translate(137.394664, 61.604908)"><g><path d="M 0.980469 -17.074219 C 0.769531 -17.074219 0.640625 -16.945312 0.640625 -16.730469 L 0.640625 -14.597656 C 0.640625 -14.382812 0.769531 -14.257812 0.980469 -14.257812 L 3.457031 -14.257812 L 3.457031 -0.339844 C 3.457031 -0.105469 3.585938 0 3.800781 0 L 6.019531 0 C 6.253906 0 6.359375 -0.105469 6.359375 -0.339844 L 6.359375 -14.257812 L 8.835938 -14.257812 C 9.070312 -14.257812 9.175781 -14.382812 9.175781 -14.597656 L 9.175781 -16.730469 C 9.175781 -16.945312 9.070312 -17.074219 8.835938 -17.074219 Z M 0.980469 -17.074219 "/></g></g></g><g fill="#000000" fill-opacity="1"><g transform="translate(147.958844, 61.604908)"><g><path d="M 0.980469 -17.074219 C 0.769531 -17.074219 0.640625 -16.945312 0.640625 -16.730469 L 0.640625 -14.597656 C 0.640625 -14.382812 0.769531 -14.257812 0.980469 -14.257812 L 3.457031 -14.257812 L 3.457031 -0.339844 C 3.457031 -0.105469 3.585938 0 3.800781 0 L 6.019531 0 C 6.253906 0 6.359375 -0.105469 6.359375 -0.339844 L 6.359375 -14.257812 L 8.835938 -14.257812 C 9.070312 -14.257812 9.175781 -14.382812 9.175781 -14.597656 L 9.175781 -16.730469 C 9.175781 -16.945312 9.070312 -17.074219 8.835938 -17.074219 Z M 0.980469 -17.074219 "/></g></g></g><g fill="#000000" fill-opacity="1"><g transform="translate(158.523024, 61.604908)"><g><path d="M 3.96875 -2.816406 L 9.050781 -2.816406 C 9.285156 -2.816406 9.390625 -2.6875 9.390625 -2.476562 L 9.390625 -0.339844 C 9.390625 -0.105469 9.285156 0 9.050781 0 L 1.410156 0 C 1.195312 0 1.066406 -0.105469 1.066406 -0.339844 L 1.066406 -16.730469 C 1.066406 -16.945312 1.195312 -17.074219 1.410156 -17.074219 L 3.628906 -17.074219 C 3.863281 -17.074219 3.96875 -16.945312 3.96875 -16.730469 Z M 3.96875 -2.816406 "/></g></g></g><g fill="#000000" fill-opacity="1"><g transform="translate(169.727456, 61.604908)"><g><path d="M 1.410156 -17.074219 C 1.171875 -17.074219 1.066406 -16.945312 1.066406 -16.730469 L 1.066406 -0.339844 C 1.066406 -0.128906 1.171875 0 1.410156 0 L 3.628906 0 C 3.839844 0 3.96875 -0.128906 3.96875 -0.339844 L 3.96875 -16.730469 C 3.96875 -16.945312 3.839844 -17.074219 3.628906 -17.074219 Z M 1.410156 -17.074219 "/></g></g></g><g fill="#000000" fill-opacity="1"><g transform="translate(175.511116, 61.604908)"><g><path d="M 7.617188 -17.074219 C 7.382812 -17.074219 7.277344 -16.945312 7.277344 -16.730469 L 7.277344 -7.726562 L 7.148438 -7.726562 L 3.90625 -16.796875 C 3.839844 -16.988281 3.714844 -17.074219 3.519531 -17.074219 L 1.410156 -17.074219 C 1.195312 -17.074219 1.066406 -16.945312 1.066406 -16.730469 L 1.066406 -0.339844 C 1.066406 -0.128906 1.195312 0 1.410156 0 L 3.628906 0 C 3.863281 0 3.96875 -0.128906 3.96875 -0.339844 L 3.96875 -9.390625 L 4.078125 -9.390625 L 7.339844 -0.277344 C 7.40625 -0.0859375 7.535156 0 7.726562 0 L 9.839844 0 C 10.050781 0 10.179688 -0.128906 10.179688 -0.339844 L 10.179688 -16.730469 C 10.179688 -16.945312 10.050781 -17.074219 9.839844 -17.074219 Z M 7.617188 -17.074219 "/></g></g></g><g fill="#000000" fill-opacity="1"><g transform="translate(187.505179, 61.604908)"><g><path d="M 1.066406 -3.074219 C 1.066406 -1.066406 2.132812 0 4.140625 0 L 6.957031 0 C 8.941406 0 10.03125 -1.066406 10.03125 -3.074219 L 10.03125 -9.007812 C 10.03125 -9.242188 9.902344 -9.347656 9.6875 -9.347656 L 6.105469 -9.347656 C 5.867188 -9.347656 5.761719 -9.242188 5.761719 -9.007812 L 5.761719 -6.871094 C 5.761719 -6.660156 5.867188 -6.53125 6.105469 -6.53125 L 7.214844 -6.53125 L 7.214844 -3.671875 C 7.214844 -3.09375 6.914062 -2.816406 6.359375 -2.816406 L 4.824219 -2.816406 C 4.269531 -2.816406 3.96875 -3.09375 3.96875 -3.671875 L 3.96875 -13.402344 C 3.96875 -13.957031 4.246094 -14.257812 4.824219 -14.257812 L 6.359375 -14.257812 C 6.914062 -14.257812 7.214844 -13.957031 7.214844 -13.402344 L 7.214844 -11.78125 C 7.214844 -11.566406 7.320312 -11.4375 7.554688 -11.4375 L 9.6875 -11.4375 C 9.902344 -11.4375 10.03125 -11.566406 10.03125 -11.78125 L 10.03125 -14 C 10.03125 -16.007812 8.941406 -17.074219 6.957031 -17.074219 L 4.140625 -17.074219 C 2.132812 -17.074219 1.066406 -16.007812 1.066406 -14 Z M 1.066406 -3.074219 "/></g></g></g><g fill="#000000" fill-opacity="1"><g transform="translate(199.349857, 61.604908)"><g/></g></g><g fill="#000000" fill-opacity="1"><g transform="translate(205.432299, 61.604908)"><g><path d="M 9.582031 -16.730469 C 9.582031 -16.945312 9.496094 -17.074219 9.242188 -17.074219 L 1.386719 -17.074219 C 1.195312 -17.074219 1.066406 -16.945312 1.066406 -16.730469 L 1.066406 -0.339844 C 1.066406 -0.128906 1.195312 0 1.386719 0 L 9.242188 0 C 9.496094 0 9.582031 -0.128906 9.582031 -0.339844 L 9.582031 -2.476562 C 9.582031 -2.710938 9.496094 -2.816406 9.242188 -2.816406 L 3.90625 -2.816406 L 3.90625 -7.128906 L 7.980469 -7.128906 C 8.195312 -7.128906 8.324219 -7.257812 8.324219 -7.492188 L 8.324219 -9.605469 C 8.324219 -9.839844 8.195312 -9.964844 7.980469 -9.964844 L 3.90625 -9.964844 L 3.90625 -14.234375 L 9.242188 -14.234375 C 9.496094 -14.234375 9.582031 -14.382812 9.582031 -14.597656 Z M 9.582031 -16.730469 "/></g></g></g><g fill="#000000" fill-opacity="1"><g transform="translate(216.828807, 61.604908)"><g><path d="M 9.605469 -14 C 9.605469 -16.007812 8.535156 -17.074219 6.53125 -17.074219 L 4.140625 -17.074219 C 2.132812 -17.074219 1.066406 -16.007812 1.066406 -14 L 1.066406 -3.074219 C 1.066406 -1.066406 2.132812 0 4.140625 0 L 5.464844 0 L 6.1875 1.578125 C 6.273438 1.75 6.339844 1.878906 6.550781 1.878906 L 8.773438 1.878906 C 9.007812 1.878906 9.175781 1.730469 9.070312 1.492188 L 8.214844 -0.339844 C 9.132812 -0.8125 9.605469 -1.730469 9.605469 -3.074219 Z M 3.96875 -13.402344 C 3.96875 -13.957031 4.269531 -14.257812 4.824219 -14.257812 L 5.933594 -14.257812 C 6.488281 -14.257812 6.785156 -13.957031 6.785156 -13.402344 L 6.785156 -3.671875 C 6.785156 -3.09375 6.488281 -2.816406 5.933594 -2.816406 L 4.824219 -2.816406 C 4.269531 -2.816406 3.96875 -3.09375 3.96875 -3.671875 Z M 3.96875 -13.402344 "/></g></g></g><g fill="#000000" fill-opacity="1"><g transform="translate(228.246652, 61.604908)"><g><path d="M 7.214844 -17.074219 C 6.980469 -17.074219 6.785156 -16.882812 6.785156 -16.648438 L 6.785156 -3.671875 C 6.785156 -3.09375 6.488281 -2.816406 5.933594 -2.816406 L 4.824219 -2.816406 C 4.269531 -2.816406 3.96875 -3.09375 3.96875 -3.671875 L 3.96875 -16.648438 C 3.96875 -16.882812 3.777344 -17.074219 3.542969 -17.074219 L 1.492188 -17.074219 C 1.257812 -17.074219 1.066406 -16.882812 1.066406 -16.648438 L 1.066406 -3.074219 C 1.066406 -1.066406 2.132812 0 4.140625 0 L 6.53125 0 C 8.535156 0 9.605469 -1.066406 9.605469 -3.074219 L 9.605469 -16.648438 C 9.605469 -16.882812 9.410156 -17.074219 9.175781 -17.074219 Z M 7.214844 -17.074219 "/></g></g></g><g fill="#000000" fill-opacity="1"><g transform="translate(239.664496, 61.604908)"><g><path d="M 1.410156 -17.074219 C 1.171875 -17.074219 1.066406 -16.945312 1.066406 -16.730469 L 1.066406 -0.339844 C 1.066406 -0.128906 1.171875 0 1.410156 0 L 3.628906 0 C 3.839844 0 3.96875 -0.128906 3.96875 -0.339844 L 3.96875 -16.730469 C 3.96875 -16.945312 3.839844 -17.074219 3.628906 -17.074219 Z M 1.410156 -17.074219 "/></g></g></g><g fill="#000000" fill-opacity="1"><g transform="translate(245.448152, 61.604908)"><g><path d="M 1.066406 -0.339844 C 1.066406 -0.128906 1.195312 0 1.410156 0 L 3.628906 0 C 3.863281 0 3.96875 -0.128906 3.96875 -0.339844 L 3.96875 -5.71875 L 6.53125 -5.71875 C 8.535156 -5.71875 9.605469 -6.808594 9.605469 -8.792969 L 9.605469 -14 C 9.605469 -16.007812 8.535156 -17.074219 6.53125 -17.074219 L 1.410156 -17.074219 C 1.195312 -17.074219 1.066406 -16.945312 1.066406 -16.730469 Z M 3.96875 -8.535156 L 3.96875 -14.257812 L 5.847656 -14.257812 C 6.425781 -14.257812 6.703125 -13.957031 6.703125 -13.402344 L 6.703125 -9.390625 C 6.703125 -8.855469 6.425781 -8.535156 5.847656 -8.535156 Z M 3.96875 -8.535156 "/></g></g></g><g fill="#000000" fill-opacity="1"><g transform="translate(256.865996, 61.604908)"><g><path d="M 9.988281 -17.074219 C 9.730469 -17.074219 9.582031 -16.945312 9.519531 -16.6875 L 7.148438 -6.0625 L 4.78125 -16.6875 C 4.714844 -16.945312 4.566406 -17.074219 4.3125 -17.074219 L 1.492188 -17.074219 C 1.214844 -17.074219 1.066406 -16.925781 1.066406 -16.648438 L 1.066406 -0.425781 C 1.066406 -0.148438 1.214844 0 1.492188 0 L 3.457031 0 C 3.734375 0 3.882812 -0.148438 3.882812 -0.425781 L 3.882812 -10.03125 L 4.035156 -10.03125 L 6.144531 -0.382812 C 6.210938 -0.128906 6.359375 0 6.617188 0 L 7.660156 0 C 7.917969 0 8.066406 -0.128906 8.132812 -0.382812 L 10.242188 -10.03125 L 10.394531 -10.03125 L 10.394531 -0.425781 C 10.394531 -0.148438 10.542969 0 10.820312 0 L 12.804688 0 C 13.082031 0 13.230469 -0.148438 13.230469 -0.425781 L 13.230469 -16.648438 C 13.230469 -16.925781 13.082031 -17.074219 12.804688 -17.074219 Z M 9.988281 -17.074219 "/></g></g></g><g fill="#000000" fill-opacity="1"><g transform="translate(271.911923, 61.604908)"><g><path d="M 9.582031 -16.730469 C 9.582031 -16.945312 9.496094 -17.074219 9.242188 -17.074219 L 1.386719 -17.074219 C 1.195312 -17.074219 1.066406 -16.945312 1.066406 -16.730469 L 1.066406 -0.339844 C 1.066406 -0.128906 1.195312 0 1.386719 0 L 9.242188 0 C 9.496094 0 9.582031 -0.128906 9.582031 -0.339844 L 9.582031 -2.476562 C 9.582031 -2.710938 9.496094 -2.816406 9.242188 -2.816406 L 3.90625 -2.816406 L 3.90625 -7.128906 L 7.980469 -7.128906 C 8.195312 -7.128906 8.324219 -7.257812 8.324219 -7.492188 L 8.324219 -9.605469 C 8.324219 -9.839844 8.195312 -9.964844 7.980469 -9.964844 L 3.90625 -9.964844 L 3.90625 -14.234375 L 9.242188 -14.234375 C 9.496094 -14.234375 9.582031 -14.382812 9.582031 -14.597656 Z M 9.582031 -16.730469 "/></g></g></g><g fill="#000000" fill-opacity="1"><g transform="translate(283.308432, 61.604908)"><g><path d="M 7.617188 -17.074219 C 7.382812 -17.074219 7.277344 -16.945312 7.277344 -16.730469 L 7.277344 -7.726562 L 7.148438 -7.726562 L 3.90625 -16.796875 C 3.839844 -16.988281 3.714844 -17.074219 3.519531 -17.074219 L 1.410156 -17.074219 C 1.195312 -17.074219 1.066406 -16.945312 1.066406 -16.730469 L 1.066406 -0.339844 C 1.066406 -0.128906 1.195312 0 1.410156 0 L 3.628906 0 C 3.863281 0 3.96875 -0.128906 3.96875 -0.339844 L 3.96875 -9.390625 L 4.078125 -9.390625 L 7.339844 -0.277344 C 7.40625 -0.0859375 7.535156 0 7.726562 0 L 9.839844 0 C 10.050781 0 10.179688 -0.128906 10.179688 -0.339844 L 10.179688 -16.730469 C 10.179688 -16.945312 10.050781 -17.074219 9.839844 -17.074219 Z M 7.617188 -17.074219 "/></g></g></g><g fill="#000000" fill-opacity="1"><g transform="translate(295.302494, 61.604908)"><g><path d="M 0.980469 -17.074219 C 0.769531 -17.074219 0.640625 -16.945312 0.640625 -16.730469 L 0.640625 -14.597656 C 0.640625 -14.382812 0.769531 -14.257812 0.980469 -14.257812 L 3.457031 -14.257812 L 3.457031 -0.339844 C 3.457031 -0.105469 3.585938 0 3.800781 0 L 6.019531 0 C 6.253906 0 6.359375 -0.105469 6.359375 -0.339844 L 6.359375 -14.257812 L 8.835938 -14.257812 C 9.070312 -14.257812 9.175781 -14.382812 9.175781 -14.597656 L 9.175781 -16.730469 C 9.175781 -16.945312 9.070312 -17.074219 8.835938 -17.074219 Z M 0.980469 -17.074219 "/></g></g></g><g fill="#ffffff" fill-opacity="1"><g transform="translate(78.942584, 30.846485)"><g><path d="M 4.921875 -3.71875 L 4.921875 -6.25 L 5.65625 -6.25 L 5.65625 0 L 4.921875 0 L 4.921875 -3.09375 L 1.671875 -3.09375 L 1.671875 0 L 0.9375 0 L 0.9375 -6.25 L 1.671875 -6.25 L 1.671875 -3.71875 Z M 4.921875 -3.71875 "/></g></g></g><g fill="#ffffff" fill-opacity="1"><g transform="translate(78.942584, 42.774473)"><g><path d="M 0.9375 0 L 0.9375 -6.25 L 3.3125 -6.25 C 3.695312 -6.25 4.019531 -6.1875 4.28125 -6.0625 C 4.550781 -5.9375 4.753906 -5.757812 4.890625 -5.53125 C 5.023438 -5.3125 5.09375 -5.046875 5.09375 -4.734375 C 5.09375 -4.460938 5.019531 -4.21875 4.875 -4 C 4.726562 -3.78125 4.519531 -3.609375 4.25 -3.484375 L 4.25 -3.390625 C 4.664062 -3.285156 4.976562 -3.097656 5.1875 -2.828125 C 5.40625 -2.554688 5.515625 -2.21875 5.515625 -1.8125 C 5.515625 -1.226562 5.34375 -0.78125 5 -0.46875 C 4.664062 -0.15625 4.160156 0 3.484375 0 Z M 3.28125 -3.625 C 3.625 -3.625 3.890625 -3.710938 4.078125 -3.890625 C 4.265625 -4.078125 4.359375 -4.328125 4.359375 -4.640625 C 4.359375 -4.972656 4.265625 -5.222656 4.078125 -5.390625 C 3.898438 -5.554688 3.632812 -5.640625 3.28125 -5.640625 L 1.671875 -5.640625 L 1.671875 -3.625 Z M 3.4375 -0.609375 C 4.320312 -0.609375 4.765625 -1.007812 4.765625 -1.8125 C 4.765625 -2.613281 4.320312 -3.015625 3.4375 -3.015625 L 1.671875 -3.015625 L 1.671875 -0.609375 Z M 3.4375 -0.609375 "/></g></g></g><g fill="#ffffff" fill-opacity="1"><g transform="translate(78.942584, 54.70246)"><g><path d="M 1.671875 -2.9375 L 1.671875 -0.609375 L 4.859375 -0.609375 L 4.859375 0 L 0.9375 0 L 0.9375 -6.25 L 4.796875 -6.25 L 4.796875 -5.640625 L 1.671875 -5.640625 L 1.671875 -3.546875 L 4.421875 -3.546875 L 4.421875 -2.9375 Z M 1.671875 -2.9375 "/></g></g></g><g fill="#ffffff" fill-opacity="1"><g transform="translate(68.809384, 42.774477)"><g><path d="M 4.921875 -3.71875 L 4.921875 -6.25 L 5.65625 -6.25 L 5.65625 0 L 4.921875 0 L 4.921875 -3.09375 L 1.671875 -3.09375 L 1.671875 0 L 0.9375 0 L 0.9375 -6.25 L 1.671875 -6.25 L 1.671875 -3.71875 Z M 4.921875 -3.71875 "/></g></g></g><g fill="#ffffff" fill-opacity="1"><g transform="translate(75.407052, 42.774477)"><g/></g></g><g fill="#ffffff" fill-opacity="1"><g transform="translate(77.549616, 42.774477)"><g/></g></g><g fill="#ffffff" fill-opacity="1"><g transform="translate(79.69218, 42.774477)"><g/></g></g><g fill="#ffffff" fill-opacity="1"><g transform="translate(81.834744, 42.774477)"><g/></g></g><g fill="#ffffff" fill-opacity="1"><g transform="translate(83.977307, 42.774477)"><g/></g></g><g fill="#ffffff" fill-opacity="1"><g transform="translate(86.119871, 42.774477)"><g/></g></g><g fill="#ffffff" fill-opacity="1"><g transform="translate(88.262435, 42.774477)"><g/></g></g><g fill="#ffffff" fill-opacity="1"><g transform="translate(90.400904, 42.774477)"><g><path d="M 1.671875 -2.9375 L 1.671875 -0.609375 L 4.859375 -0.609375 L 4.859375 0 L 0.9375 0 L 0.9375 -6.25 L 4.796875 -6.25 L 4.796875 -5.640625 L 1.671875 -5.640625 L 1.671875 -3.546875 L 4.421875 -3.546875 L 4.421875 -2.9375 Z M 1.671875 -2.9375 "/></g></g></g></svg>